Coordinates
version=1
nRows=32
nColumns=34
inDegrees=no

Units are S.I. units (second, meters, Newtons, ...)
If the header above contains a line with 'inDegrees', this indicates whether rotational values are in degrees (yes) or radians (no).

endheader
time	pelvis_tilt	pelvis_list	pelvis_rotation	pelvis_tx	pelvis_ty	pelvis_tz	hip_flexion_r	hip_adduction_r	hip_rotation_r	knee_angle_r	ankle_angle_r	subtalar_angle_r	mtp_angle_r	hip_flexion_l	hip_adduction_l	hip_rotation_l	knee_angle_l	ankle_angle_l	subtalar_angle_l	mtp_angle_l	lumbar_extension	lumbar_bending	lumbar_rotation	arm_flex_r	arm_add_r	arm_rot_r	elbow_flex_r	pro_sup_r	arm_flex_l	arm_add_l	arm_rot_l	elbow_flex_l	pro_sup_l
3.37	-0.613133	-0.0486685	-0.0340141	-0.338604	0.730689	-0.645589	1.63884	-0.326282	-0.192562	1.50992	0.525223	0.0943554	-0.00816957	1.69921	-0.493006	-0.0937294	1.51397	0.554802	0.413413	-0.00817653	-0.272932	0.0560267	0.0539046	1.40175	-0.222076	0.300141	2.02016	1.8111	1.36999	-0.192728	0.413828	2.01123	1.95216
3.38	-0.615992	-0.048584	-0.03447	-0.339841	0.726333	-0.64595	1.65149	-0.327609	-0.188873	1.52064	0.526662	0.0944376	-0.00816954	1.71268	-0.492674	-0.0886291	1.52531	0.556637	0.411541	-0.00817649	-0.279318	0.0568374	0.0546823	1.41462	-0.221351	0.301599	2.01878	1.80971	1.38035	-0.191016	0.412122	2.00983	1.95265
3.39	-0.619133	-0.0485268	-0.0350084	-0.341061	0.721992	-0.646313	1.66432	-0.328831	-0.185275	1.53116	0.528	0.0944538	-0.00816952	1.72634	-0.492581	-0.0837493	1.53649	0.558437	0.410032	-0.00817645	-0.285194	0.0577261	0.0555935	1.42721	-0.22075	0.303211	2.01727	1.80874	1.39024	-0.189194	0.410405	2.0084	1.95264
3.4	-0.622483	-0.0484588	-0.0355894	-0.342261	0.717665	-0.646676	1.67729	-0.330021	-0.181749	1.5415	0.52926	0.0944507	-0.00816949	1.74009	-0.492677	-0.0791142	1.54751	0.560226	0.408855	-0.00817641	-0.290634	0.0586263	0.0565657	1.4395	-0.220236	0.304935	2.0156	1.80824	1.39975	-0.187307	0.408738	2.00693	1.95229
3.41	-0.625977	-0.0483476	-0.036145	-0.343438	0.713354	-0.647042	1.69035	-0.331281	-0.178272	1.55171	0.53047	0.094495	-0.00816946	1.75383	-0.492872	-0.0747402	1.55835	0.562008	0.407948	-0.00817637	-0.295701	0.0594872	0.0574944	1.45149	-0.219758	0.306727	2.01377	1.80818	1.40895	-0.185402	0.40718	2.00545	1.95173
3.42	-0.62958	-0.0481737	-0.0366017	-0.344592	0.709055	-0.647412	1.70347	-0.332707	-0.174819	1.56182	0.531657	0.0946484	-0.00816943	1.76752	-0.493059	-0.070627	1.56902	0.563772	0.407228	-0.00817632	-0.300433	0.0602771	0.0582727	1.46315	-0.219268	0.308544	2.01178	1.80849	1.41792	-0.183522	0.40578	2.00399	1.95112
3.43	-0.633296	-0.0479349	-0.0369015	-0.345725	0.704764	-0.647789	1.71669	-0.334363	-0.171369	1.57184	0.532835	0.0949453	-0.00816941	1.78117	-0.49314	-0.0667485	1.57953	0.565497	0.406598	-0.00817628	-0.304817	0.0609844	0.0588178	1.47449	-0.218725	0.310351	2.00967	1.80904	1.42669	-0.181703	0.404579	2.0026	1.95056
3.44	-0.637179	-0.047648	-0.0370077	-0.34684	0.70047	-0.648171	1.73005	-0.336269	-0.167912	1.58182	0.534006	0.0953803	-0.00816938	1.79485	-0.493037	-0.0630526	1.58986	0.56715	0.405964	-0.00817624	-0.308792	0.0616207	0.0590785	1.48546	-0.218102	0.312127	2.0075	1.80963	1.43532	-0.179973	0.403601	2.00131	1.95013
3.45	-0.641306	-0.0473432	-0.0369003	-0.347942	0.696162	-0.648557	1.74366	-0.338416	-0.16444	1.59175	0.535156	0.0959113	-0.00816935	1.8087	-0.492687	-0.0594731	1.60002	0.568695	0.405242	-0.00817619	-0.312269	0.0622191	0.0590312	1.49607	-0.217388	0.313865	2.00535	1.81004	1.44379	-0.178351	0.40285	2.00016	1.94989
3.46	-0.645756	-0.0470526	-0.0365703	-0.349037	0.691829	-0.648948	1.7576	-0.34078	-0.160947	1.60164	0.536265	0.0964743	-0.00816933	1.82281	-0.492048	-0.0559489	1.61003	0.570098	0.404369	-0.00817615	-0.315163	0.062823	0.0586715	1.50629	-0.216588	0.315567	2.00331	1.81008	1.45211	-0.176849	0.402313	1.99918	1.94983
3.47	-0.650568	-0.0468	-0.0360153	-0.350129	0.687463	-0.649343	1.77192	-0.343332	-0.157414	1.61151	0.537313	0.0970034	-0.0081693	1.83728	-0.491093	-0.0524391	1.6199	0.571334	0.403312	-0.0081761	-0.317432	0.0634725	0.0580085	1.51615	-0.21572	0.317233	2.00144	1.80968	1.46027	-0.175466	0.401949	1.99837	1.94993
3.48	-0.655722	-0.046598	-0.0352425	-0.351219	0.683061	-0.649744	1.78661	-0.346047	-0.153817	1.62136	0.538287	0.0974458	-0.00816927	1.85209	-0.489817	-0.0489207	1.62966	0.572401	0.402069	-0.00817606	-0.319105	0.0641965	0.0570672	1.52568	-0.214812	0.318847	1.99978	1.80897	1.46826	-0.174195	0.401693	1.99774	1.95021
3.49	-0.661123	-0.0464555	-0.03428	-0.352304	0.678628	-0.650154	1.80161	-0.348889	-0.150143	1.63122	0.539186	0.0977663	-0.00816924	1.86719	-0.488244	-0.0453704	1.63935	0.573321	0.400667	-0.00817601	-0.320308	0.0650142	0.0559001	1.53492	-0.213886	0.32039	1.99834	1.80819	1.47608	-0.173024	0.401464	1.99725	1.95069
3.5	-0.666599	-0.0463929	-0.0331917	-0.353378	0.674175	-0.650571	1.81672	-0.351794	-0.146404	1.6411	0.540021	0.0979412	-0.00816921	1.88243	-0.486444	-0.0417406	1.64903	0.574136	0.399156	-0.00817597	-0.321254	0.0659415	0.0546053	1.54397	-0.212961	0.32185	1.99709	1.80753	1.48379	-0.171939	0.401177	1.99688	1.95136
3.51	-0.67193	-0.0464513	-0.0320803	-0.354433	0.669717	-0.650991	1.83172	-0.354662	-0.142656	1.65101	0.540805	0.097953	-0.00816919	1.89765	-0.484526	-0.037943	1.65878	0.574906	0.397604	-0.00817592	-0.322216	0.0670074	0.0533297	1.55293	-0.212046	0.323226	1.99597	1.80707	1.4914	-0.170927	0.400751	1.99658	1.95214
3.52	-0.676885	-0.0466949	-0.031065	-0.355457	0.665272	-0.651409	1.84632	-0.357386	-0.138989	1.66095	0.541558	0.097793	-0.00816916	1.91271	-0.482617	-0.0338563	1.66867	0.57569	0.396081	-0.00817588	-0.32348	0.0682662	0.0522434	1.56191	-0.211139	0.324542	1.99492	1.80682	1.49898	-0.169979	0.400111	1.9963	1.95298
3.53	-0.681259	-0.0471995	-0.0302464	-0.356441	0.660855	-0.651819	1.86028	-0.359882	-0.135505	1.67092	0.542301	0.0974669	-0.00816913	1.9275	-0.480813	-0.0293537	1.67878	0.576539	0.394641	-0.00817583	-0.325297	0.0697973	0.0514974	1.57103	-0.210229	0.325848	1.99386	1.80668	1.50655	-0.169096	0.399191	1.99602	1.95376
3.54	-0.684896	-0.0480311	-0.0296875	-0.357377	0.656477	-0.652223	1.8734	-0.362106	-0.132287	1.68093	0.543056	0.0969945	-0.0081691	1.94192	-0.479171	-0.0243358	1.68915	0.577486	0.393319	-0.00817578	-0.327856	0.0716821	0.0511939	1.58036	-0.209292	0.327205	1.9927	1.80652	1.51412	-0.168289	0.397942	1.99572	1.95439
3.55	-0.687705	-0.0492239	-0.0294188	-0.358259	0.652145	-0.65262	1.88557	-0.364044	-0.129383	1.69098	0.543837	0.0964026	-0.00816907	1.95595	-0.477721	-0.0187535	1.69981	0.578549	0.39214	-0.00817573	-0.331264	0.0739648	0.05138	1.58995	-0.2083	0.328657	1.99139	1.80622	1.52169	-0.167572	0.396345	1.99539	1.9548
3.56	-0.689665	-0.0507608	-0.0294526	-0.359083	0.64786	-0.653006	1.89677	-0.365684	-0.126792	1.70108	0.544649	0.0957176	-0.00816905	1.96955	-0.476499	-0.0126259	1.71076	0.579737	0.391127	-0.00817569	-0.335536	0.0766121	0.0520512	1.59976	-0.207226	0.330211	1.98991	1.80566	1.52924	-0.166964	0.394435	1.99504	1.9549
3.57	-0.690839	-0.0525612	-0.0297893	-0.359849	0.643618	-0.653373	1.90707	-0.367001	-0.124454	1.71121	0.545486	0.0949615	-0.00816902	1.98273	-0.475563	-0.00605294	1.72196	0.581046	0.390315	-0.00817564	-0.340582	0.0794898	0.0531499	1.60968	-0.206047	0.331819	1.98829	1.80475	1.53675	-0.166485	0.392309	1.99468	1.9546
3.58	-0.691379	-0.0544851	-0.0304149	-0.360561	0.639408	-0.653705	1.91669	-0.367969	-0.122251	1.72138	0.546337	0.0941494	-0.00816899	1.99551	-0.474989	0.000786463	1.73333	0.58246	0.38975	-0.00817559	-0.346196	0.0823689	0.0545659	1.61947	-0.204755	0.333383	1.98664	1.80346	1.54417	-0.16615	0.390124	1.99433	1.95385
3.59	-0.691507	-0.0563608	-0.0312984	-0.361223	0.635218	-0.653988	1.92589	-0.368566	-0.120037	1.73158	0.547188	0.093293	-0.00816896	2.00794	-0.474852	0.00766817	1.74481	0.583957	0.389483	-0.00817554	-0.352072	0.0849781	0.0561517	1.62885	-0.203349	0.334778	1.98508	1.80181	1.55142	-0.165963	0.388061	1.99401	1.95267
3.6	-0.691443	-0.058062	-0.0323989	-0.361842	0.631031	-0.654209	1.93494	-0.368807	-0.117703	1.7418	0.548029	0.0924105	-0.00816893	2.02012	-0.475191	0.0144164	1.75632	0.585505	0.389548	-0.00817549	-0.357905	0.0871199	0.0577724	1.63757	-0.201838	0.33591	1.98373	1.79998	1.5584	-0.165908	0.386246	1.99374	1.95119
3.61	-0.691361	-0.0595325	-0.0336662	-0.362422	0.626836	-0.654366	1.94403	-0.368748	-0.115208	1.75205	0.548859	0.09153	-0.0081689	2.03209	-0.475987	0.0209397	1.76781	0.587076	0.38995	-0.00817544	-0.36345	0.088716	0.0593273	1.64545	-0.200232	0.336731	1.98262	1.79831	1.56502	-0.165942	0.384718	1.9935	1.94975
3.62	-0.691352	-0.0607811	-0.0350409	-0.362966	0.622627	-0.654467	1.95326	-0.368487	-0.112568	1.76232	0.549684	0.0906885	-0.00816887	2.04388	-0.477157	0.027233	1.77926	0.588646	0.390661	-0.00817539	-0.368567	0.0897992	0.0607557	1.65243	-0.198549	0.337247	1.98173	1.79722	1.57119	-0.16601	0.383435	1.99325	1.94877
3.63	-0.691404	-0.0618554	-0.0364562	-0.363475	0.61841	-0.654524	1.96259	-0.368147	-0.109839	1.77264	0.550519	0.089929	-0.00816884	2.05539	-0.478563	0.0333571	1.79065	0.590206	0.39163	-0.00817534	-0.373262	0.0904725	0.0620352	1.65854	-0.196822	0.337504	1.98101	1.79704	1.57688	-0.166058	0.382321	1.99296	1.9486
3.64	-0.69138	-0.0628061	-0.0378446	-0.363945	0.6142	-0.654556	1.97189	-0.367859	-0.107078	1.78301	0.551386	0.0892971	-0.00816881	2.06643	-0.480035	0.0394075	1.80192	0.591771	0.392804	-0.00817529	-0.377697	0.0908504	0.0631745	1.66391	-0.195094	0.337575	1.98039	1.79797	1.58209	-0.166048	0.381305	1.99259	1.94948
3.65	-0.691037	-0.0636569	-0.0391523	-0.364367	0.610026	-0.654578	1.98089	-0.367732	-0.104327	1.79347	0.552309	0.0888325	-0.00816879	2.07666	-0.481412	0.0454874	1.81304	0.593386	0.394152	-0.00817524	-0.382176	0.0910066	0.064207	1.6687	-0.193421	0.337536	1.97983	1.80002	1.58687	-0.165965	0.380344	1.99213	1.95147
3.66	-0.690066	-0.0643909	-0.0403565	-0.36473	0.60592	-0.654602	1.98929	-0.36783	-0.101605	1.80404	0.553308	0.0885597	-0.00816876	2.08569	-0.48257	0.0516958	1.82395	0.59512	0.395677	-0.00817519	-0.38708	0.0909444	0.0651862	1.67306	-0.191853	0.337447	1.97928	1.80298	1.59129	-0.165805	0.379426	1.99157	1.95446
3.67	-0.688161	-0.0649577	-0.0414767	-0.365025	0.601916	-0.654634	1.99679	-0.368155	-0.0989148	1.81474	0.554391	0.0884807	-0.00816873	2.09316	-0.483445	0.058126	1.83458	0.597061	0.397407	-0.00817514	-0.392781	0.0905982	0.066181	1.67712	-0.190431	0.337347	1.97875	1.80643	1.59542	-0.16557	0.37857	1.99091	1.95812
3.68	-0.685087	-0.0652925	-0.0425764	-0.365244	0.598037	-0.654672	2.00317	-0.368649	-0.0962624	1.82559	0.555554	0.0885757	-0.0081687	2.09888	-0.484039	0.0648639	1.84486	0.5993	0.399391	-0.00817508	-0.399559	0.0898584	0.0672704	1.68092	-0.189179	0.337258	1.97827	1.80976	1.5993	-0.165268	0.37782	1.99021	1.96193
